<?xml version="1.0" standalone="no"?>
<!DOCTYPE svg PUBLIC "-//W3C//DTD SVG 20010904//EN"
 "http://www.w3.org/TR/2001/REC-SVG-20010904/DTD/svg10.dtd">
<svg version="1.0" xmlns="http://www.w3.org/2000/svg"
 width="512.000000pt" height="512.000000pt" viewBox="0 0 512.000000 512.000000"
 preserveAspectRatio="xMidYMid meet">

<g transform="translate(0.000000,512.000000) scale(0.100000,-0.100000)"
fill="#000000" stroke="none">
<path d="M1495 4309 c-326 -47 -579 -273 -671 -599 -17 -61 -19 -129 -22
-1007 l-3 -943 -252 0 c-227 0 -256 -2 -294 -20 -46 -20 -79 -64 -89 -118 -14
-73 5 -97 368 -459 293 -291 349 -343 386 -354 88 -26 91 -23 466 349 361 360
384 388 371 461 -9 57 -40 100 -88 121 -38 18 -67 20 -294 20 l-253 0 0 913
c0 793 2 921 16 972 37 143 150 270 292 327 l57 23 955 5 c884 5 957 6 987 22
17 10 35 23 39 29 4 7 -47 65 -122 140 l-129 129 -830 -1 c-456 -1 -857 -5
-890 -10z m-408 -2996 l-127 -128 -127 128 -128 127 255 0 255 0 -128 -127z"/>
<path d="M3527 3744 c-70 -69 -135 -136 -143 -149 -18 -27 -21 -97 -6 -135 15
-38 66 -81 108 -91 22 -4 146 -9 277 -9 l237 0 0 -919 c0 -885 -1 -921 -20
-982 -48 -156 -179 -283 -335 -324 -51 -13 -184 -15 -985 -15 l-926 0 -44 -22
c-48 -25 -90 -89 -90 -138 0 -50 42 -113 90 -138 l45 -23 955 3 955 3 79 23
c284 82 487 289 568 577 22 80 22 84 26 944 l3 865 -328 328 c-180 180 -330
328 -333 328 -3 0 -63 -57 -133 -126z"/>
</g>
</svg>
